# Made in Blockbench 4.7.2
mtllib Coqueiro_Lendario.mtl

o tronco
v 0.3125000000000002 1 0.3875000000000002
v 0.32500000000000007 1 -0.38750000000000007
v 0.375 0 0.4375
v 0.375 0 -0.4375
v -0.3250000000000002 1 0.38750000000000007
v -0.33125000000000016 1 -0.3812500000000002
v -0.375 0 0.4375
v -0.375 0 -0.4375
v 0.42058407371300155 4.172322301518851 0.34375000000000006
v 0.41433407371300157 4.172322301518851 -0.2937500000000002
v -0.10382106477565943 4.1995844186221865 0.33750000000000013
v -0.11632106477565943 4.1995844186221865 -0.2875000000000002
v 0.3038210647756595 0.9254155813778138 0.37499999999999994
v 0.3038210647756595 0.9254155813778138 -0.37499999999999994
v -0.3205840737130015 0.9526776984811489 0.37499999999999994
v -0.3205840737130015 0.9526776984811489 -0.37499999999999994
v 0.35098727127072965 5.876048418378126 -0.14903560529966142
v 0.3997259963665287 4.129378057547849 -0.2878695331889995
v -0.023536839520199138 5.897858112060795 -0.08653560529966142
v -0.09979811442440006 4.151187751230517 -0.2878695331889995
v 0.34979811442440006 5.848812248769483 0.2878695331889995
v 0.3985368395201992 4.102141887939205 0.3365356052996614
v -0.024725996366528696 5.870621942452151 0.2253695331889995
v -0.10098727127072965 4.123951581621874 0.3365356052996614
vt 0.17578125 0.6015625
vt 0.1015625 0.6015625
vt 0.1015625 0.21875
vt 0.17578125 0.21875
vt 0.17578125 0.21875
vt 0.17578125 0.6015625
vt 0.1015625 0.6015625
vt 0.1015625 0.21875
vt 0.1015625 0.02734375
vt 0.17578125 0.02734375
vt 0.17578125 0.6015625
vt 0.1015625 0.6015625
vt 0.17578125 0.02734375
vt 0.17578125 0.6015625
vt 0.1015625 0.6015625
vt 0.1015625 0.02734375
vt 0.17578125 0.21875
vt 0.17578125 0.6015625
vt 0.1015625 0.6015625
vt 0.1015625 0.21875
vt 0.17578125 0.6015625
vt 0.1015625 0.6015625
vt 0.1015625 0.21875
vt 0.17578125 0.21875
vt 0.19140625 0.97265625
vt 0.12109375 0.97265625
vt 0.12109375 0.72265625
vt 0.19140625 0.72265625
vt 0.19140625 0.72265625
vt 0.19140625 0.97265625
vt 0.12109375 0.97265625
vt 0.12109375 0.72265625
vt 0.12109375 0.59765625
vt 0.19140625 0.59765625
vt 0.19140625 0.97265625
vt 0.12109375 0.97265625
vt 0.19140625 0.59765625
vt 0.19140625 0.97265625
vt 0.12109375 0.97265625
vt 0.12109375 0.59765625
vt 0.19140625 0.72265625
vt 0.19140625 0.97265625
vt 0.12109375 0.97265625
vt 0.12109375 0.72265625
vt 0.19140625 0.97265625
vt 0.12109375 0.97265625
vt 0.12109375 0.72265625
vt 0.19140625 0.72265625
vt 0.19140625 0.97265625
vt 0.12109375 0.97265625
vt 0.12109375 0.72265625
vt 0.19140625 0.72265625
vt 0.19140625 0.72265625
vt 0.19140625 0.97265625
vt 0.12109375 0.97265625
vt 0.12109375 0.72265625
vt 0.12109375 0.59765625
vt 0.19140625 0.59765625
vt 0.19140625 0.97265625
vt 0.12109375 0.97265625
vt 0.19140625 0.59765625
vt 0.19140625 0.97265625
vt 0.12109375 0.97265625
vt 0.12109375 0.59765625
vt 0.19140625 0.72265625
vt 0.19140625 0.97265625
vt 0.12109375 0.97265625
vt 0.12109375 0.72265625
vt 0.19140625 0.97265625
vt 0.12109375 0.97265625
vt 0.12109375 0.72265625
vt 0.19140625 0.72265625
vn 0.9978728800106882 0.06317179119422478 0.016094723871139926
vn -0.9986990860391376 0.050340929540183994 0.008119504764545803
vn 0 1 0
vn 0 -1 0
vn -1.7393534784633873e-16 0.04993761694389205 0.9987523388778448
vn -0.009511721573357144 0.049460952181458157 -0.9987307652025217
vn 0.9993026661566207 -0.03603052231803754 -0.009797084962319775
vn -0.9975650362059517 0.0668277198386592 0.019951300724119003
vn 0.05192268238233236 0.9986509780331112 -0.0005090459057091375
vn -0.04361938736533624 -0.9990482215818579 0
vn -0.011395297609318929 0.010033225462437522 0.999884734146499
vn -0.010470048556129718 0.025370752908246565 -0.9996232805312715
vn 0.9995974640567634 0.028017025718346127 0.004467227460640255
vn -0.9990482215818578 0.04361938736533605 -5.1182743620765127e-17
vn 0.047661119607582854 0.9969202790722252 0.062276599556400136
vn -0.04357787137383075 -0.9980973490458727 -0.04361938736533707
vn -0.16325997642907825 0.022925376650785614 0.986316687074591
vn -0.15997223601314747 0.07377797311508795 -0.9843605510116622
usemtl m_3c7b0c54-f5af-b4d5-e4f6-4fceb89b94cd
f 2/1/1 1/2/1 3/3/1 4/4/1
f 7/5/2 5/6/2 6/7/2 8/8/2
f 5/9/3 1/10/3 2/11/3 6/12/3
f 4/13/4 3/14/4 7/15/4 8/16/4
f 3/17/5 1/18/5 5/19/5 7/20/5
f 6/21/6 2/22/6 4/23/6 8/24/6
f 10/25/7 9/26/7 13/27/7 14/28/7
f 15/29/8 11/30/8 12/31/8 16/32/8
f 11/33/9 9/34/9 10/35/9 12/36/9
f 14/37/10 13/38/10 15/39/10 16/40/10
f 13/41/11 9/42/11 11/43/11 15/44/11
f 12/45/12 10/46/12 14/47/12 16/48/12
f 17/49/13 21/50/13 22/51/13 18/52/13
f 24/53/14 23/54/14 19/55/14 20/56/14
f 23/57/15 21/58/15 17/59/15 19/60/15
f 18/61/16 22/62/16 24/63/16 20/64/16
f 22/65/17 21/66/17 23/67/17 24/68/17
f 19/69/18 17/70/18 18/71/18 20/72/18
o pyramid
v -0.19998927278772072 6.2259085989562415 -0.42028688975487494
v 0.5887745800740332 6.071684362607473 0.43356700251318564
v 0.2728420261334189 5.703887980817413 -0.7134699162050813
v -0.43230296376719046 5.743809235074011 -0.10976627477441492
v -1.604324369652542 5.1922098225448625 -1.377543921778815
v -1.4804795807161226 5.1922098225448625 1.656851330744328
v 0.010918534587188555 5.743809235074011 0.7870088163963598
v -0.2419596163585273 6.2259085989562415 0.4929929254676185
v 0.7623742731283186 6.071684362607473 -0.09226626783979919
v -0.42585361064085814 5.703887980817413 -0.032086804768508004
v 0.08317563034746256 6.07840086455515 -0.07397842494573503
v 0.5676970362328095 5.516352298935585 0.8142014846599754
v 0.8000107272122792 6.070993720309594 0.9598577329973303
v 1.5887745800740332 5.3372742127390085 1.4230070271013515
v 1.2728420261334188 5.934478903460667 0.37691218018707895
v 0.9271012217059744 5.703887980817413 0.2666764639841287
v 1.8305133639093496 5.1922098225448625 -1.5077514617615941
v 0.6981432857005341 6.2259085989562415 -0.24037776169403413
v -0.2513601104275186 6.071684362607473 0.43018780979313664
v 0.42060223911165917 5.743809235074011 -0.5112350503216387
vt 0.97265625 0.0859375
vt 0.97265625 0.68359375
vt 0.3125 0.68359375
vt 0.3125 0.0859375
vt 0.3125 0.185546875
vt 0.97265625 0.185546875
vt 0.642578125 0.68359375
vt 0.3125 0.185546875
vt 0.97265625 0.185546875
vt 0.642578125 0.68359375
vt 0.3125 0.185546875
vt 0.97265625 0.185546875
vt 0.642578125 0.68359375
vt 0.3125 0.185546875
vt 0.97265625 0.185546875
vt 0.642578125 0.68359375
vt 0.97265625 0.0859375
vt 0.97265625 0.68359375
vt 0.3125 0.68359375
vt 0.3125 0.0859375
vt 0.3125 0.185546875
vt 0.97265625 0.185546875
vt 0.642578125 0.68359375
vt 0.3125 0.185546875
vt 0.97265625 0.185546875
vt 0.642578125 0.68359375
vt 0.3125 0.185546875
vt 0.97265625 0.185546875
vt 0.642578125 0.68359375
vt 0.3125 0.185546875
vt 0.97265625 0.185546875
vt 0.642578125 0.68359375
vt 0.97265625 0.0859375
vt 0.97265625 0.68359375
vt 0.3125 0.68359375
vt 0.3125 0.0859375
vt 0.3125 0.185546875
vt 0.97265625 0.185546875
vt 0.642578125 0.68359375
vt 0.3125 0.185546875
vt 0.97265625 0.185546875
vt 0.642578125 0.68359375
vt 0.3125 0.185546875
vt 0.97265625 0.185546875
vt 0.642578125 0.68359375
vt 0.3125 0.185546875
vt 0.97265625 0.185546875
vt 0.642578125 0.68359375
vt 0.97265625 0.0859375
vt 0.97265625 0.68359375
vt 0.3125 0.68359375
vt 0.3125 0.0859375
vt 0.3125 0.185546875
vt 0.97265625 0.185546875
vt 0.642578125 0.68359375
vt 0.3125 0.185546875
vt 0.97265625 0.185546875
vt 0.642578125 0.68359375
vt 0.3125 0.185546875
vt 0.97265625 0.185546875
vt 0.642578125 0.68359375
vt 0.3125 0.185546875
vt 0.97265625 0.185546875
vt 0.642578125 0.68359375
vn 0.16773125949651968 -0.9512512425641979 0.25881904510252074
vn 0.5635113771045056 0.7288369064297369 -0.388910904578047
vn -0.5134220793627076 0.625685011681104 0.587295525762363
vn 0.13026840633677522 0.5725916836424332 -0.809425046643604
vn -0.7036199618188202 0.5920996646815444 0.39285739959186805
vn 0.2889876893509644 -0.9512512425641977 -0.10773666471383196
vn -0.2577259783547211 0.7288369064297362 -0.6343296334769752
vn 0.46224940015663585 0.6256850116811016 0.6283659429126074
vn -0.7620431975251539 0.5725916836424321 -0.30237216956784274
vn 0.23125387769385408 0.592099664681542 0.7719712631539865
vn 0.16773125949651832 -0.833477440747527 -0.526480370339355
vn 0.5635113771045062 0.7791302729165398 0.27461053457356877
vn -0.5134220793627063 -0.01029301421093408 0.8580744852757997
vn 0.1575632933725202 0.9822048142975802 -0.10221306840253429
vn -0.8060937707665046 0.19049601706943592 0.5602893004619304
vn -0.27849813491092623 -0.9512512425641976 0.13251363088832024
vn 0.31203072355001665 0.7288369064297359 0.6094535186433708
vn -0.5152561021040113 0.6256850116811014 -0.5856871309856493
vn 0.7854968641163459 0.5725916836424311 0.23480511128787832
vn -0.297655615691808 0.592099664681542 -0.7488785759595052
usemtl m_3c7b0c54-f5af-b4d5-e4f6-4fceb89b94cd
f 27/73/19 26/74/19 28/75/19 29/76/19
f 26/77/20 27/78/20 25/79/20
f 28/80/21 26/81/21 25/82/21
f 27/83/22 29/84/22 25/85/22
f 29/86/23 28/87/23 25/88/23
f 34/89/24 33/90/24 31/91/24 30/92/24
f 33/93/25 34/94/25 32/95/25
f 31/96/26 33/97/26 32/98/26
f 34/99/27 30/100/27 32/101/27
f 30/102/28 31/103/28 32/104/28
f 39/105/29 38/106/29 36/107/29 35/108/29
f 38/109/30 39/110/30 37/111/30
f 36/112/31 38/113/31 37/114/31
f 39/115/32 35/116/32 37/117/32
f 35/118/33 36/119/33 37/120/33
f 40/121/34 43/122/34 44/123/34 41/124/34
f 43/125/35 40/126/35 42/127/35
f 44/128/36 43/129/36 42/130/36
f 40/131/37 41/132/37 42/133/37
f 41/134/38 44/135/38 42/136/38